<?xml version="1.0" encoding="UTF-8"?>
<svg id="Ebene_1" xmlns="http://www.w3.org/2000/svg" version="1.1" viewBox="0 0 326.3 286">
  <!-- Generator: Adobe Illustrator 29.6.1, SVG Export Plug-In . SVG Version: 2.1.1 Build 9)  -->
  <defs>
    <style>
      .st0 {
        fill: #fff;
      }

      .st1 {
        fill: #1875bc;
      }
    </style>
  </defs>
  <rect class="st1" width="326.3" height="286"/>
  <g>
    <path class="st0" d="M180.8,144.1c0,10.3-8.3,18.6-18.6,18.6s-18.6-8.3-18.6-18.6,8.3-18.6,18.6-18.6,5.3.6,7.6,1.6c-2.3.7-4,2.9-4,5.4s2.5,5.7,5.6,5.7,5.5-2.4,5.6-5.3c2.4,3.1,3.8,7,3.8,11.3Z"/>
    <path class="st0" d="M248.3,139.2V56.8H76.5v49.4l-21.6,21.3,21.6,22.1v79.1h171.9v-46l21.6-21.3-21.6-22.2ZM80.3,60.7h42.4l-42.4,41.8v-41.8ZM244.5,224.8h-38.9l38.9-38.4v38.4ZM244.5,135.3l-11.7-12c-2-2-4.1-3.9-6.4-5.5-8.4-6-28.2-17.9-51.7-15-31.2,3.8-51.9,25.2-51.9,25.2,0,0,26.4-10.9,49.5-7.5,23.1,3.4,35.4,10.3,43.4,17.9,7.2,6.9,21.3,20.4,23.5,22.5l-64.9,63.9h-94v-71.3l12.7,13c1,1.1,2.1,2,3.3,3,6.5,5.1,27.9,19.9,53.8,16.7,31.2-3.8,51.9-25.2,51.9-25.2,0,0-26.4,10.9-49.5,7.5-23.1-3.4-35.4-10.3-43.4-17.9-7.2-6.9-21.3-20.4-23.5-22.5l68.4-67.4h90.5v74.6Z"/>
  </g>
</svg>